<svg id="svg" version="1.1" xmlns="http://www.w3.org/2000/svg" xmlns:xlink="http://www.w3.org/1999/xlink" width="400" height="400" viewBox="0, 0, 400,400"><g id="svgg"><path id="path0" d="M241.651 78.343 C 241.349 78.544,238.308 78.839,234.893 78.999 C 231.149 79.174,228.155 79.510,227.354 79.845 C 226.624 80.150,225.322 80.400,224.462 80.400 C 223.601 80.400,222.251 80.670,221.462 81.000 C 220.672 81.330,219.525 81.606,218.913 81.613 C 218.301 81.620,217.451 81.890,217.024 82.213 C 216.596 82.536,215.786 82.806,215.224 82.813 C 214.661 82.820,213.851 83.090,213.424 83.413 C 212.996 83.736,212.402 84.000,212.102 84.000 C 211.367 84.000,203.314 87.892,203.001 88.399 C 202.864 88.619,202.502 88.800,202.196 88.800 C 201.630 88.800,198.128 90.962,197.400 91.761 C 197.180 92.003,196.205 92.740,195.234 93.400 C 191.045 96.245,182.959 105.295,181.243 109.058 C 181.028 109.530,180.705 109.980,180.526 110.058 C 180.347 110.136,179.788 111.010,179.285 112.000 C 178.782 112.990,178.209 114.070,178.012 114.400 C 177.143 115.857,175.200 120.318,175.200 120.855 C 175.200 121.181,174.936 121.796,174.613 122.224 C 174.290 122.651,174.019 123.360,174.010 123.800 C 174.002 124.240,173.755 125.061,173.461 125.624 C 173.167 126.187,172.800 127.438,172.646 128.404 C 172.491 129.370,172.211 130.349,172.022 130.580 C 171.833 130.811,171.471 132.170,171.217 133.600 C 169.486 143.330,169.501 143.037,169.247 171.680 C 169.083 190.165,168.859 199.701,168.583 199.977 C 168.305 200.255,159.895 200.428,143.383 200.497 L 118.600 200.600 118.497 228.900 L 118.395 257.200 143.188 257.200 L 167.982 257.200 168.596 258.138 C 169.144 258.975,169.200 266.672,169.106 329.138 L 169.000 399.200 172.900 399.200 C 175.233 399.200,176.800 399.361,176.800 399.600 C 176.800 399.862,184.800 400.000,200.000 400.000 C 215.200 400.000,223.200 399.862,223.200 399.600 C 223.200 399.360,224.800 399.200,227.200 399.200 L 231.200 399.200 231.200 328.649 C 231.200 270.105,231.291 258.022,231.737 257.652 C 232.114 257.339,239.036 257.176,255.037 257.103 L 277.800 257.000 278.077 254.800 C 278.230 253.590,278.541 251.880,278.768 251.000 C 278.995 250.120,279.185 248.557,279.190 247.526 C 279.196 246.495,279.397 245.145,279.639 244.526 C 279.880 243.907,280.226 242.050,280.408 240.400 C 280.889 236.031,281.592 231.262,282.060 229.200 C 282.284 228.210,282.610 225.934,282.784 224.142 C 282.958 222.350,283.227 220.679,283.382 220.429 C 283.536 220.179,283.827 218.236,284.028 216.110 C 284.229 213.985,284.575 212.065,284.797 211.843 C 285.019 211.621,285.204 210.351,285.210 209.020 C 285.215 207.689,285.413 205.880,285.650 205.000 C 285.888 204.120,286.172 202.725,286.283 201.900 L 286.484 200.400 259.322 200.400 C 238.729 200.400,232.044 200.284,231.680 199.920 C 230.911 199.151,231.035 156.757,231.812 154.600 C 232.129 153.720,232.391 152.520,232.394 151.932 C 232.397 151.345,232.649 150.355,232.953 149.732 C 233.257 149.110,234.112 147.364,234.853 145.854 C 236.689 142.110,243.450 135.200,245.278 135.200 C 245.587 135.200,246.050 134.990,246.307 134.733 C 246.881 134.159,249.198 133.279,251.600 132.724 C 252.590 132.495,253.652 132.103,253.961 131.854 C 254.354 131.536,259.655 131.361,271.661 131.270 L 288.800 131.140 288.800 106.914 C 288.800 79.247,289.160 81.648,285.000 81.595 C 283.680 81.579,281.790 81.377,280.800 81.148 C 279.810 80.918,276.930 80.579,274.400 80.394 C 271.870 80.208,269.170 79.872,268.400 79.647 C 267.630 79.421,262.680 79.051,257.400 78.824 C 252.120 78.597,246.540 78.314,245.000 78.195 C 243.460 78.076,241.953 78.143,241.651 78.343 " stroke="none" fill="#fbfbfc" fill-rule="evenodd"></path><path id="path1" d="M176.800 0.400 C 176.800 0.645,174.867 0.800,171.800 0.800 C 167.622 0.800,166.800 0.899,166.800 1.400 C 166.800 1.880,166.200 2.000,163.800 2.000 C 161.400 2.000,160.800 2.120,160.800 2.600 C 160.800 3.083,160.178 3.200,157.600 3.200 C 155.022 3.200,154.400 3.317,154.400 3.800 C 154.400 4.267,153.867 4.400,152.000 4.400 C 150.133 4.400,149.600 4.533,149.600 5.000 C 149.600 5.467,149.067 5.600,147.200 5.600 C 145.333 5.600,144.800 5.733,144.800 6.200 C 144.800 6.653,144.311 6.800,142.800 6.800 C 141.289 6.800,140.800 6.947,140.800 7.400 C 140.800 7.851,140.317 8.000,138.849 8.000 C 137.603 8.000,136.718 8.217,136.400 8.600 C 136.126 8.930,135.384 9.200,134.751 9.200 C 133.995 9.200,133.600 9.406,133.600 9.800 C 133.600 10.244,133.133 10.400,131.800 10.400 C 130.467 10.400,130.000 10.556,130.000 11.000 C 130.000 11.445,129.532 11.600,128.187 11.600 C 126.945 11.600,126.302 11.789,126.145 12.200 C 126.013 12.542,125.417 12.800,124.757 12.800 C 123.995 12.800,123.600 13.005,123.600 13.400 C 123.600 14.032,123.274 14.129,121.529 14.015 C 120.804 13.968,120.312 14.217,120.009 14.784 C 119.762 15.245,119.405 15.527,119.216 15.410 C 118.674 15.075,117.600 15.628,117.600 16.243 C 117.600 16.595,117.159 16.800,116.400 16.800 C 115.600 16.800,115.200 17.000,115.200 17.400 C 115.200 17.800,114.800 18.000,114.000 18.000 C 113.200 18.000,112.800 18.200,112.800 18.600 C 112.800 19.019,112.378 19.200,111.400 19.200 C 110.422 19.200,110.000 19.381,110.000 19.800 C 110.000 20.200,109.600 20.400,108.800 20.400 C 108.000 20.400,107.600 20.600,107.600 21.000 C 107.600 21.400,107.200 21.600,106.400 21.600 C 105.600 21.600,105.200 21.800,105.200 22.200 C 105.200 22.600,104.800 22.800,104.000 22.800 C 103.200 22.800,102.800 23.000,102.800 23.400 C 102.800 23.800,102.400 24.000,101.600 24.000 C 100.800 24.000,100.400 24.200,100.400 24.600 C 100.400 25.000,100.000 25.200,99.200 25.200 C 98.400 25.200,98.000 25.400,98.000 25.800 C 98.000 26.130,97.730 26.400,97.400 26.400 C 97.070 26.400,96.800 26.670,96.800 27.000 C 96.800 27.401,96.399 27.600,95.587 27.600 C 94.879 27.600,94.279 27.849,94.145 28.200 C 94.018 28.530,93.599 28.800,93.213 28.800 C 92.827 28.800,91.844 29.430,91.027 30.200 C 90.211 30.970,89.196 31.600,88.772 31.600 C 88.347 31.600,88.000 31.870,88.000 32.200 C 88.000 32.530,87.730 32.800,87.400 32.800 C 87.070 32.800,86.800 33.070,86.800 33.400 C 86.800 33.800,86.400 34.000,85.600 34.000 C 84.800 34.000,84.400 34.200,84.400 34.600 C 84.400 34.930,84.130 35.200,83.800 35.200 C 83.470 35.200,83.200 35.470,83.200 35.800 C 83.200 36.130,82.930 36.400,82.600 36.400 C 82.270 36.400,82.000 36.670,82.000 37.000 C 82.000 37.400,81.600 37.600,80.800 37.600 C 80.000 37.600,79.600 37.800,79.600 38.200 C 79.600 38.533,79.244 38.800,78.800 38.800 C 78.356 38.800,78.000 39.067,78.000 39.400 C 78.000 39.730,77.730 40.000,77.400 40.000 C 77.070 40.000,76.800 40.270,76.800 40.600 C 76.800 40.975,76.421 41.200,75.787 41.200 C 75.231 41.200,74.671 41.470,74.545 41.800 C 74.418 42.130,74.064 42.400,73.757 42.400 C 73.451 42.400,73.200 42.580,73.200 42.800 C 73.200 43.319,71.719 44.800,71.200 44.800 C 70.980 44.800,70.800 45.070,70.800 45.400 C 70.800 45.732,70.445 46.000,70.003 46.000 C 69.565 46.000,68.982 46.360,68.707 46.800 C 68.432 47.240,67.981 47.600,67.704 47.600 C 67.427 47.600,67.200 47.870,67.200 48.200 C 67.200 48.530,66.930 48.800,66.600 48.800 C 66.270 48.800,66.000 49.070,66.000 49.400 C 66.000 49.730,65.730 50.000,65.400 50.000 C 65.070 50.000,64.800 50.270,64.800 50.600 C 64.800 50.930,64.524 51.200,64.187 51.200 C 63.851 51.200,63.471 51.470,63.345 51.800 C 63.218 52.130,62.864 52.400,62.557 52.400 C 62.251 52.400,62.000 52.580,62.000 52.800 C 62.000 53.319,60.519 54.800,60.000 54.800 C 59.780 54.800,59.600 55.070,59.600 55.400 C 59.600 55.730,59.330 56.000,59.000 56.000 C 58.670 56.000,58.400 56.270,58.400 56.600 C 58.400 56.930,58.130 57.200,57.800 57.200 C 57.470 57.200,57.200 57.470,57.200 57.800 C 57.200 58.130,56.930 58.400,56.600 58.400 C 56.270 58.400,56.000 58.670,56.000 59.000 C 56.000 59.330,55.730 59.600,55.400 59.600 C 55.070 59.600,54.800 59.870,54.800 60.200 C 54.800 60.530,54.530 60.800,54.200 60.800 C 53.870 60.800,53.600 61.070,53.600 61.400 C 53.600 61.730,53.330 62.000,53.000 62.000 C 52.670 62.000,52.400 62.251,52.400 62.557 C 52.400 62.864,52.130 63.218,51.800 63.345 C 51.470 63.471,51.200 63.851,51.200 64.187 C 51.200 64.524,50.930 64.800,50.600 64.800 C 50.270 64.800,50.000 65.070,50.000 65.400 C 50.000 65.730,49.730 66.000,49.400 66.000 C 49.070 66.000,48.800 66.270,48.800 66.600 C 48.800 66.930,48.530 67.200,48.200 67.200 C 47.870 67.200,47.600 67.427,47.600 67.704 C 47.600 67.981,47.240 68.432,46.800 68.707 C 46.360 68.982,46.000 69.565,46.000 70.003 C 46.000 70.445,45.732 70.800,45.400 70.800 C 45.070 70.800,44.800 70.980,44.800 71.200 C 44.800 71.719,43.319 73.200,42.800 73.200 C 42.580 73.200,42.400 73.451,42.400 73.757 C 42.400 74.064,42.130 74.418,41.800 74.545 C 41.470 74.671,41.200 75.231,41.200 75.787 C 41.200 76.421,40.975 76.800,40.600 76.800 C 40.270 76.800,40.000 77.070,40.000 77.400 C 40.000 77.730,39.730 78.000,39.400 78.000 C 39.067 78.000,38.800 78.356,38.800 78.800 C 38.800 79.244,38.533 79.600,38.200 79.600 C 37.800 79.600,37.600 80.000,37.600 80.800 C 37.600 81.600,37.400 82.000,37.000 82.000 C 36.670 82.000,36.400 82.270,36.400 82.600 C 36.400 82.930,36.130 83.200,35.800 83.200 C 35.470 83.200,35.200 83.470,35.200 83.800 C 35.200 84.130,34.930 84.400,34.600 84.400 C 34.200 84.400,34.000 84.800,34.000 85.600 C 34.000 86.400,33.800 86.800,33.400 86.800 C 33.070 86.800,32.800 87.070,32.800 87.400 C 32.800 87.730,32.530 88.000,32.200 88.000 C 31.870 88.000,31.600 88.354,31.600 88.786 C 31.600 89.219,31.046 90.140,30.368 90.833 C 29.691 91.526,29.064 92.468,28.976 92.926 C 28.887 93.385,28.542 93.913,28.208 94.100 C 27.873 94.287,27.600 94.971,27.600 95.620 C 27.600 96.402,27.398 96.800,27.000 96.800 C 26.670 96.800,26.400 97.070,26.400 97.400 C 26.400 97.730,26.130 98.000,25.800 98.000 C 25.400 98.000,25.200 98.400,25.200 99.200 C 25.200 100.000,25.000 100.400,24.600 100.400 C 24.200 100.400,24.000 100.800,24.000 101.600 C 24.000 102.400,23.800 102.800,23.400 102.800 C 23.000 102.800,22.800 103.200,22.800 104.000 C 22.800 104.800,22.600 105.200,22.200 105.200 C 21.800 105.200,21.600 105.600,21.600 106.400 C 21.600 107.200,21.400 107.600,21.000 107.600 C 20.600 107.600,20.400 108.000,20.400 108.800 C 20.400 109.600,20.200 110.000,19.800 110.000 C 19.381 110.000,19.200 110.422,19.200 111.400 C 19.200 112.378,19.019 112.800,18.600 112.800 C 18.200 112.800,18.000 113.200,18.000 114.000 C 18.000 114.800,17.800 115.200,17.400 115.200 C 17.000 115.200,16.800 115.600,16.800 116.400 C 16.800 117.159,16.595 117.600,16.243 117.600 C 15.628 117.600,15.075 118.674,15.410 119.216 C 15.527 119.405,15.245 119.762,14.784 120.009 C 14.217 120.312,13.968 120.804,14.015 121.529 C 14.129 123.274,14.032 123.600,13.400 123.600 C 13.005 123.600,12.800 123.995,12.800 124.757 C 12.800 125.417,12.542 126.013,12.200 126.145 C 11.789 126.302,11.600 126.945,11.600 128.187 C 11.600 129.532,11.445 130.000,11.000 130.000 C 10.556 130.000,10.400 130.467,10.400 131.800 C 10.400 133.133,10.244 133.600,9.800 133.600 C 9.406 133.600,9.200 133.995,9.200 134.751 C 9.200 135.384,8.930 136.126,8.600 136.400 C 8.217 136.718,8.000 137.603,8.000 138.849 C 8.000 140.317,7.851 140.800,7.400 140.800 C 6.947 140.800,6.800 141.289,6.800 142.800 C 6.800 144.311,6.653 144.800,6.200 144.800 C 5.733 144.800,5.600 145.333,5.600 147.200 C 5.600 149.067,5.467 149.600,5.000 149.600 C 4.533 149.600,4.400 150.133,4.400 152.000 C 4.400 153.867,4.267 154.400,3.800 154.400 C 3.317 154.400,3.200 155.022,3.200 157.600 C 3.200 160.178,3.083 160.800,2.600 160.800 C 2.120 160.800,2.000 161.400,2.000 163.800 C 2.000 166.200,1.880 166.800,1.400 166.800 C 0.899 166.800,0.800 167.622,0.800 171.800 C 0.800 174.867,0.645 176.800,0.400 176.800 C 0.138 176.800,0.000 184.800,0.000 200.000 C 0.000 215.200,0.138 223.200,0.400 223.200 C 0.645 223.200,0.800 225.133,0.800 228.200 C 0.800 232.378,0.899 233.200,1.400 233.200 C 1.880 233.200,2.000 233.800,2.000 236.200 C 2.000 238.600,2.120 239.200,2.600 239.200 C 3.083 239.200,3.200 239.822,3.200 242.400 C 3.200 244.978,3.317 245.600,3.800 245.600 C 4.267 245.600,4.400 246.133,4.400 248.000 C 4.400 249.867,4.533 250.400,5.000 250.400 C 5.467 250.400,5.600 250.933,5.600 252.800 C 5.600 254.667,5.733 255.200,6.200 255.200 C 6.653 255.200,6.800 255.689,6.800 257.200 C 6.800 258.711,6.947 259.200,7.400 259.200 C 7.861 259.200,8.000 259.713,8.000 261.413 C 8.000 263.010,8.167 263.689,8.600 263.855 C 8.942 263.987,9.200 264.583,9.200 265.243 C 9.200 266.005,9.405 266.400,9.800 266.400 C 10.244 266.400,10.400 266.867,10.400 268.200 C 10.400 269.533,10.556 270.000,11.000 270.000 C 11.445 270.000,11.600 270.468,11.600 271.813 C 11.600 273.055,11.789 273.698,12.200 273.855 C 12.542 273.987,12.800 274.583,12.800 275.243 C 12.800 276.005,13.005 276.400,13.400 276.400 C 14.032 276.400,14.129 276.726,14.015 278.471 C 13.968 279.196,14.217 279.688,14.784 279.991 C 15.245 280.238,15.527 280.595,15.410 280.784 C 15.075 281.326,15.628 282.400,16.243 282.400 C 16.595 282.400,16.800 282.841,16.800 283.600 C 16.800 284.400,17.000 284.800,17.400 284.800 C 17.800 284.800,18.000 285.200,18.000 286.000 C 18.000 286.800,18.200 287.200,18.600 287.200 C 19.019 287.200,19.200 287.622,19.200 288.600 C 19.200 289.578,19.381 290.000,19.800 290.000 C 20.200 290.000,20.400 290.400,20.400 291.200 C 20.400 292.000,20.600 292.400,21.000 292.400 C 21.400 292.400,21.600 292.800,21.600 293.600 C 21.600 294.400,21.800 294.800,22.200 294.800 C 22.600 294.800,22.800 295.200,22.800 296.000 C 22.800 296.800,23.000 297.200,23.400 297.200 C 23.800 297.200,24.000 297.600,24.000 298.400 C 24.000 299.200,24.200 299.600,24.600 299.600 C 25.000 299.600,25.200 300.000,25.200 300.800 C 25.200 301.600,25.400 302.000,25.800 302.000 C 26.130 302.000,26.400 302.270,26.400 302.600 C 26.400 302.930,26.670 303.200,27.000 303.200 C 27.398 303.200,27.600 303.598,27.600 304.380 C 27.600 305.029,27.873 305.713,28.208 305.900 C 28.542 306.087,28.887 306.615,28.976 307.074 C 29.064 307.532,29.691 308.474,30.368 309.167 C 31.046 309.860,31.600 310.781,31.600 311.214 C 31.600 311.646,31.870 312.000,32.200 312.000 C 32.530 312.000,32.800 312.270,32.800 312.600 C 32.800 312.930,33.070 313.200,33.400 313.200 C 33.800 313.200,34.000 313.600,34.000 314.400 C 34.000 315.200,34.200 315.600,34.600 315.600 C 34.930 315.600,35.200 315.870,35.200 316.200 C 35.200 316.530,35.470 316.800,35.800 316.800 C 36.130 316.800,36.400 317.070,36.400 317.400 C 36.400 317.730,36.670 318.000,37.000 318.000 C 37.401 318.000,37.600 318.401,37.600 319.213 C 37.600 319.921,37.849 320.521,38.200 320.655 C 38.530 320.782,38.800 321.136,38.800 321.443 C 38.800 321.749,39.070 322.000,39.400 322.000 C 39.730 322.000,40.000 322.270,40.000 322.600 C 40.000 322.930,40.270 323.200,40.600 323.200 C 40.975 323.200,41.200 323.579,41.200 324.213 C 41.200 324.769,41.470 325.329,41.800 325.455 C 42.130 325.582,42.400 325.936,42.400 326.243 C 42.400 326.549,42.670 326.800,43.000 326.800 C 43.330 326.800,43.600 327.070,43.600 327.400 C 43.600 327.730,43.870 328.000,44.200 328.000 C 44.530 328.000,44.800 328.270,44.800 328.600 C 44.800 328.930,45.048 329.200,45.350 329.200 C 45.653 329.200,46.008 329.740,46.140 330.400 C 46.281 331.104,46.632 331.600,46.990 331.600 C 47.326 331.600,47.600 331.870,47.600 332.200 C 47.600 332.530,47.870 332.800,48.200 332.800 C 48.530 332.800,48.800 333.070,48.800 333.400 C 48.800 333.730,49.070 334.000,49.400 334.000 C 49.730 334.000,50.000 334.270,50.000 334.600 C 50.000 334.930,50.270 335.200,50.600 335.200 C 50.933 335.200,51.200 335.556,51.200 336.000 C 51.200 336.444,51.467 336.800,51.800 336.800 C 52.130 336.800,52.400 337.070,52.400 337.400 C 52.400 337.730,52.670 338.000,53.000 338.000 C 53.330 338.000,53.600 338.270,53.600 338.600 C 53.600 338.930,53.870 339.200,54.200 339.200 C 54.530 339.200,54.800 339.470,54.800 339.800 C 54.800 340.130,55.070 340.400,55.400 340.400 C 55.730 340.400,56.000 340.670,56.000 341.000 C 56.000 341.330,56.270 341.600,56.600 341.600 C 56.930 341.600,57.200 341.870,57.200 342.200 C 57.200 342.530,57.470 342.800,57.800 342.800 C 58.130 342.800,58.400 343.070,58.400 343.400 C 58.400 343.730,58.670 344.000,59.000 344.000 C 59.330 344.000,59.600 344.270,59.600 344.600 C 59.600 344.930,59.780 345.200,60.000 345.200 C 60.519 345.200,62.000 346.681,62.000 347.200 C 62.000 347.420,62.251 347.600,62.557 347.600 C 62.864 347.600,63.218 347.870,63.345 348.200 C 63.471 348.530,63.851 348.800,64.187 348.800 C 64.524 348.800,64.800 349.070,64.800 349.400 C 64.800 349.730,65.070 350.000,65.400 350.000 C 65.730 350.000,66.000 350.270,66.000 350.600 C 66.000 350.930,66.270 351.200,66.600 351.200 C 66.930 351.200,67.200 351.419,67.200 351.687 C 67.200 352.389,69.193 354.000,70.062 354.000 C 70.468 354.000,70.800 354.270,70.800 354.600 C 70.800 354.930,71.070 355.200,71.400 355.200 C 71.730 355.200,72.000 355.470,72.000 355.800 C 72.000 356.130,72.270 356.400,72.600 356.400 C 72.930 356.400,73.200 356.670,73.200 357.000 C 73.200 357.330,73.451 357.600,73.757 357.600 C 74.064 357.600,74.418 357.870,74.545 358.200 C 74.671 358.530,75.231 358.800,75.787 358.800 C 76.421 358.800,76.800 359.025,76.800 359.400 C 76.800 359.730,77.070 360.000,77.400 360.000 C 77.730 360.000,78.000 360.270,78.000 360.600 C 78.000 360.933,78.356 361.200,78.800 361.200 C 79.244 361.200,79.600 361.467,79.600 361.800 C 79.600 362.200,80.000 362.400,80.800 362.400 C 81.600 362.400,82.000 362.600,82.000 363.000 C 82.000 363.330,82.270 363.600,82.600 363.600 C 82.930 363.600,83.200 363.870,83.200 364.200 C 83.200 364.530,83.470 364.800,83.800 364.800 C 84.130 364.800,84.400 365.070,84.400 365.400 C 84.400 365.800,84.800 366.000,85.600 366.000 C 86.400 366.000,86.800 366.200,86.800 366.600 C 86.800 366.930,87.070 367.200,87.400 367.200 C 87.730 367.200,88.000 367.450,88.000 367.757 C 88.000 368.063,88.446 368.425,88.992 368.562 C 89.537 368.699,90.534 369.349,91.206 370.006 C 91.878 370.663,92.762 371.200,93.171 371.200 C 93.580 371.200,94.018 371.470,94.145 371.800 C 94.279 372.151,94.879 372.400,95.587 372.400 C 96.399 372.400,96.800 372.599,96.800 373.000 C 96.800 373.330,97.070 373.600,97.400 373.600 C 97.730 373.600,98.000 373.870,98.000 374.200 C 98.000 374.600,98.400 374.800,99.200 374.800 C 100.000 374.800,100.400 375.000,100.400 375.400 C 100.400 375.800,100.800 376.000,101.600 376.000 C 102.400 376.000,102.800 376.200,102.800 376.600 C 102.800 377.000,103.200 377.200,104.000 377.200 C 104.800 377.200,105.200 377.400,105.200 377.800 C 105.200 378.200,105.600 378.400,106.400 378.400 C 107.200 378.400,107.600 378.600,107.600 379.000 C 107.600 379.400,108.000 379.600,108.800 379.600 C 109.600 379.600,110.000 379.800,110.000 380.200 C 110.000 380.619,110.422 380.800,111.400 380.800 C 112.378 380.800,112.800 380.981,112.800 381.400 C 112.800 381.800,113.200 382.000,114.000 382.000 C 114.800 382.000,115.200 382.200,115.200 382.600 C 115.200 382.995,115.595 383.200,116.353 383.200 C 117.170 383.200,117.568 383.433,117.716 384.000 C 117.854 384.529,118.262 384.800,118.920 384.800 C 119.467 384.800,120.018 385.070,120.145 385.400 C 120.297 385.796,120.923 386.000,121.987 386.000 C 123.154 386.000,123.600 386.166,123.600 386.600 C 123.600 386.995,123.995 387.200,124.757 387.200 C 125.417 387.200,126.013 387.458,126.145 387.800 C 126.302 388.211,126.945 388.400,128.187 388.400 C 129.532 388.400,130.000 388.555,130.000 389.000 C 130.000 389.444,130.467 389.600,131.800 389.600 C 133.133 389.600,133.600 389.756,133.600 390.200 C 133.600 390.644,134.067 390.800,135.400 390.800 C 136.733 390.800,137.200 390.956,137.200 391.400 C 137.200 391.844,137.667 392.000,139.000 392.000 C 140.333 392.000,140.800 392.156,140.800 392.600 C 140.800 393.053,141.289 393.200,142.800 393.200 C 144.311 393.200,144.800 393.347,144.800 393.800 C 144.800 394.267,145.333 394.400,147.200 394.400 C 149.067 394.400,149.600 394.533,149.600 395.000 C 149.600 395.467,150.133 395.600,152.000 395.600 C 153.867 395.600,154.400 395.733,154.400 396.200 C 154.400 396.683,155.022 396.800,157.600 396.800 C 160.178 396.800,160.800 396.917,160.800 397.400 C 160.800 397.880,161.400 398.000,163.800 398.000 C 166.200 398.000,166.800 398.120,166.800 398.600 C 166.800 398.930,167.057 399.200,167.371 399.200 C 168.395 399.200,168.436 396.056,168.317 327.000 L 168.200 259.000 143.200 258.900 C 120.262 258.808,118.159 258.743,117.700 258.123 C 116.971 257.138,116.971 200.862,117.700 199.877 C 118.159 199.257,120.262 199.192,143.200 199.100 L 168.200 199.000 168.405 170.000 C 168.558 148.430,168.737 140.642,169.105 139.603 C 169.377 138.834,169.600 137.293,169.600 136.179 C 169.600 135.017,169.850 133.822,170.187 133.376 C 170.510 132.949,170.780 131.869,170.787 130.976 C 170.794 130.084,171.064 129.004,171.387 128.576 C 171.710 128.149,171.980 127.228,171.987 126.529 C 171.994 125.829,172.270 124.987,172.600 124.657 C 172.930 124.327,173.200 123.517,173.200 122.857 C 173.200 122.197,173.470 121.387,173.800 121.057 C 174.130 120.727,174.400 120.119,174.400 119.705 C 174.400 119.291,174.664 118.604,174.987 118.176 C 175.310 117.749,175.580 117.098,175.587 116.729 C 175.594 116.359,175.840 115.818,176.133 115.525 C 176.425 115.232,176.789 114.499,176.940 113.896 C 177.091 113.293,177.392 112.800,177.608 112.800 C 177.823 112.800,178.000 112.571,178.000 112.291 C 178.000 112.011,178.630 110.825,179.400 109.656 C 180.170 108.487,180.800 107.381,180.800 107.198 C 180.800 107.016,180.935 106.807,181.100 106.733 C 181.265 106.660,181.929 105.821,182.576 104.868 C 183.223 103.916,184.438 102.409,185.276 101.519 C 186.114 100.629,186.800 99.822,186.800 99.725 C 186.800 99.485,190.803 95.600,191.049 95.600 C 191.157 95.600,191.730 95.093,192.323 94.473 C 193.775 92.955,196.611 90.800,197.158 90.800 C 197.401 90.800,197.600 90.616,197.600 90.390 C 197.600 90.165,198.005 89.802,198.500 89.584 C 198.995 89.366,199.940 88.828,200.600 88.387 C 201.260 87.946,202.295 87.369,202.900 87.105 C 203.505 86.841,204.000 86.498,204.000 86.344 C 204.000 86.190,204.540 85.945,205.200 85.800 C 205.860 85.655,206.400 85.371,206.400 85.168 C 206.400 84.966,206.605 84.800,206.856 84.800 C 207.107 84.800,208.052 84.456,208.956 84.037 C 212.354 82.459,213.542 82.000,214.260 81.987 C 214.667 81.980,215.349 81.710,215.776 81.387 C 216.204 81.064,217.194 80.794,217.976 80.787 C 218.759 80.780,219.749 80.510,220.176 80.187 C 220.604 79.864,221.783 79.600,222.796 79.600 C 223.810 79.600,224.846 79.394,225.099 79.141 C 225.351 78.889,226.962 78.607,228.679 78.514 C 230.395 78.422,232.233 78.133,232.762 77.873 C 234.124 77.203,259.489 77.206,260.840 77.876 C 261.402 78.155,264.249 78.414,267.704 78.500 C 271.550 78.597,273.774 78.814,274.084 79.124 C 274.375 79.415,275.893 79.607,277.980 79.618 C 279.905 79.627,282.099 79.887,283.000 80.212 C 283.880 80.529,285.523 80.791,286.651 80.794 C 289.811 80.803,289.618 79.036,289.503 106.845 L 289.400 131.800 273.600 132.000 C 262.009 132.147,257.567 132.333,256.926 132.700 C 256.446 132.975,255.276 133.201,254.326 133.202 C 253.377 133.204,252.097 133.467,251.483 133.788 C 250.869 134.108,249.744 134.487,248.983 134.630 C 248.222 134.772,247.600 135.029,247.600 135.201 C 247.600 135.373,247.107 135.637,246.504 135.788 C 245.901 135.940,245.316 136.184,245.204 136.332 C 244.927 136.696,242.481 138.400,242.235 138.400 C 241.537 138.400,237.513 143.072,236.809 144.700 C 236.595 145.195,236.235 145.600,236.010 145.600 C 235.784 145.600,235.600 145.926,235.600 146.324 C 235.600 146.721,235.336 147.396,235.013 147.824 C 234.690 148.251,234.419 148.960,234.410 149.400 C 234.402 149.840,234.150 150.670,233.850 151.245 C 233.550 151.820,233.176 153.664,233.018 155.343 C 232.861 157.021,232.567 158.496,232.366 158.621 C 232.152 158.753,232.000 167.248,232.000 179.021 L 232.000 199.194 259.500 199.297 L 287.000 199.400 286.999 203.281 C 286.998 205.846,286.829 207.331,286.499 207.661 C 286.207 207.953,286.000 209.198,286.000 210.666 C 286.000 212.044,285.749 213.943,285.442 214.886 C 285.135 215.829,284.791 218.105,284.677 219.945 C 284.563 221.785,284.274 223.486,284.035 223.725 C 283.796 223.964,283.592 225.069,283.583 226.180 C 283.573 227.291,283.380 229.010,283.153 230.000 C 282.926 230.990,282.564 233.510,282.348 235.600 C 282.133 237.690,281.786 239.571,281.578 239.780 C 281.370 239.989,281.196 241.069,281.190 242.180 C 281.185 243.291,280.989 244.920,280.755 245.800 C 280.520 246.680,280.101 249.200,279.822 251.400 C 279.544 253.600,279.047 256.120,278.718 257.000 L 278.120 258.600 255.060 258.703 L 232.000 258.806 232.000 329.003 C 232.000 391.134,232.069 399.200,232.600 399.200 C 232.930 399.200,233.200 398.930,233.200 398.600 C 233.200 398.120,233.800 398.000,236.200 398.000 C 238.600 398.000,239.200 397.880,239.200 397.400 C 239.200 396.917,239.822 396.800,242.400 396.800 C 244.978 396.800,245.600 396.683,245.600 396.200 C 245.600 395.733,246.133 395.600,248.000 395.600 C 249.867 395.600,250.400 395.467,250.400 395.000 C 250.400 394.533,250.933 394.400,252.800 394.400 C 254.667 394.400,255.200 394.267,255.200 393.800 C 255.200 393.347,255.689 393.200,257.200 393.200 C 258.711 393.200,259.200 393.053,259.200 392.600 C 259.200 392.156,259.667 392.000,261.000 392.000 C 262.333 392.000,262.800 391.844,262.800 391.400 C 262.800 390.956,263.267 390.800,264.600 390.800 C 265.933 390.800,266.400 390.644,266.400 390.200 C 266.400 389.756,266.867 389.600,268.200 389.600 C 269.533 389.600,270.000 389.444,270.000 389.000 C 270.000 388.555,270.468 388.400,271.813 388.400 C 273.055 388.400,273.698 388.211,273.855 387.800 C 273.987 387.458,274.583 387.200,275.243 387.200 C 276.005 387.200,276.400 386.995,276.400 386.600 C 276.400 386.166,276.846 386.000,278.013 386.000 C 279.077 386.000,279.703 385.796,279.855 385.400 C 279.987 385.058,280.583 384.800,281.243 384.800 C 282.133 384.800,282.400 384.616,282.400 384.000 C 282.400 383.378,282.667 383.200,283.600 383.200 C 284.400 383.200,284.800 383.000,284.800 382.600 C 284.800 382.200,285.200 382.000,286.000 382.000 C 286.800 382.000,287.200 381.800,287.200 381.400 C 287.200 380.981,287.622 380.800,288.600 380.800 C 289.578 380.800,290.000 380.619,290.000 380.200 C 290.000 379.800,290.400 379.600,291.200 379.600 C 292.000 379.600,292.400 379.400,292.400 379.000 C 292.400 378.600,292.800 378.400,293.600 378.400 C 294.400 378.400,294.800 378.200,294.800 377.800 C 294.800 377.400,295.200 377.200,296.000 377.200 C 296.800 377.200,297.200 377.000,297.200 376.600 C 297.200 376.200,297.600 376.000,298.400 376.000 C 299.200 376.000,299.600 375.800,299.600 375.400 C 299.600 375.000,300.000 374.800,300.800 374.800 C 301.600 374.800,302.000 374.600,302.000 374.200 C 302.000 373.870,302.270 373.600,302.600 373.600 C 302.930 373.600,303.200 373.330,303.200 373.000 C 303.200 372.599,303.601 372.400,304.413 372.400 C 305.121 372.400,305.721 372.151,305.855 371.800 C 305.982 371.470,306.420 371.200,306.829 371.200 C 307.238 371.200,308.122 370.663,308.794 370.006 C 309.466 369.349,310.463 368.699,311.008 368.562 C 311.554 368.425,312.000 368.063,312.000 367.757 C 312.000 367.450,312.270 367.200,312.600 367.200 C 312.930 367.200,313.200 366.930,313.200 366.600 C 313.200 366.200,313.600 366.000,314.400 366.000 C 315.200 366.000,315.600 365.800,315.600 365.400 C 315.600 365.070,315.870 364.800,316.200 364.800 C 316.530 364.800,316.800 364.530,316.800 364.200 C 316.800 363.870,317.070 363.600,317.400 363.600 C 317.730 363.600,318.000 363.330,318.000 363.000 C 318.000 362.599,318.401 362.400,319.213 362.400 C 319.921 362.400,320.521 362.151,320.655 361.800 C 320.782 361.470,321.136 361.200,321.443 361.200 C 321.749 361.200,322.000 360.930,322.000 360.600 C 322.000 360.270,322.270 360.000,322.600 360.000 C 322.930 360.000,323.200 359.730,323.200 359.400 C 323.200 359.025,323.579 358.800,324.213 358.800 C 324.769 358.800,325.329 358.530,325.455 358.200 C 325.582 357.870,325.936 357.600,326.243 357.600 C 326.549 357.600,326.800 357.330,326.800 357.000 C 326.800 356.670,327.070 356.400,327.400 356.400 C 327.730 356.400,328.000 356.130,328.000 355.800 C 328.000 355.470,328.270 355.200,328.600 355.200 C 328.930 355.200,329.200 354.930,329.200 354.600 C 329.200 354.270,329.532 354.000,329.938 354.000 C 330.807 354.000,332.800 352.389,332.800 351.687 C 332.800 351.419,333.070 351.200,333.400 351.200 C 333.730 351.200,334.000 350.930,334.000 350.600 C 334.000 350.270,334.270 350.000,334.600 350.000 C 334.930 350.000,335.200 349.730,335.200 349.400 C 335.200 349.067,335.556 348.800,336.000 348.800 C 336.444 348.800,336.800 348.533,336.800 348.200 C 336.800 347.870,337.070 347.600,337.400 347.600 C 337.730 347.600,338.000 347.330,338.000 347.000 C 338.000 346.670,338.270 346.400,338.600 346.400 C 338.930 346.400,339.200 346.130,339.200 345.800 C 339.200 345.470,339.470 345.200,339.800 345.200 C 340.130 345.200,340.400 344.930,340.400 344.600 C 340.400 344.270,340.670 344.000,341.000 344.000 C 341.330 344.000,341.600 343.730,341.600 343.400 C 341.600 343.070,341.870 342.800,342.200 342.800 C 342.530 342.800,342.800 342.530,342.800 342.200 C 342.800 341.870,343.070 341.600,343.400 341.600 C 343.730 341.600,344.000 341.330,344.000 341.000 C 344.000 340.670,344.270 340.400,344.600 340.400 C 344.930 340.400,345.200 340.130,345.200 339.800 C 345.200 339.470,345.470 339.200,345.800 339.200 C 346.130 339.200,346.400 338.930,346.400 338.600 C 346.400 338.270,346.670 338.000,347.000 338.000 C 347.330 338.000,347.600 337.730,347.600 337.400 C 347.600 337.070,347.870 336.800,348.200 336.800 C 348.533 336.800,348.800 336.444,348.800 336.000 C 348.800 335.556,349.067 335.200,349.400 335.200 C 349.730 335.200,350.000 334.930,350.000 334.600 C 350.000 334.270,350.270 334.000,350.600 334.000 C 350.930 334.000,351.200 333.730,351.200 333.400 C 351.200 333.070,351.419 332.800,351.687 332.800 C 352.389 332.800,354.000 330.807,354.000 329.938 C 354.000 329.532,354.270 329.200,354.600 329.200 C 354.930 329.200,355.200 328.930,355.200 328.600 C 355.200 328.270,355.470 328.000,355.800 328.000 C 356.130 328.000,356.400 327.730,356.400 327.400 C 356.400 327.070,356.670 326.800,357.000 326.800 C 357.330 326.800,357.600 326.549,357.600 326.243 C 357.600 325.936,357.870 325.582,358.200 325.455 C 358.530 325.329,358.800 324.769,358.800 324.213 C 358.800 323.579,359.025 323.200,359.400 323.200 C 359.730 323.200,360.000 322.930,360.000 322.600 C 360.000 322.270,360.270 322.000,360.600 322.000 C 360.930 322.000,361.200 321.749,361.200 321.443 C 361.200 321.136,361.470 320.782,361.800 320.655 C 362.151 320.521,362.400 319.921,362.400 319.213 C 362.400 318.401,362.599 318.000,363.000 318.000 C 363.330 318.000,363.600 317.730,363.600 317.400 C 363.600 317.070,363.870 316.800,364.200 316.800 C 364.530 316.800,364.800 316.530,364.800 316.200 C 364.800 315.870,365.070 315.600,365.400 315.600 C 365.800 315.600,366.000 315.200,366.000 314.400 C 366.000 313.600,366.200 313.200,366.600 313.200 C 366.930 313.200,367.200 312.930,367.200 312.600 C 367.200 312.270,367.450 312.000,367.757 312.000 C 368.063 312.000,368.425 311.554,368.562 311.008 C 368.699 310.463,369.349 309.466,370.006 308.794 C 370.663 308.122,371.200 307.238,371.200 306.829 C 371.200 306.420,371.470 305.982,371.800 305.855 C 372.151 305.721,372.400 305.121,372.400 304.413 C 372.400 303.601,372.599 303.200,373.000 303.200 C 373.330 303.200,373.600 302.930,373.600 302.600 C 373.600 302.270,373.870 302.000,374.200 302.000 C 374.600 302.000,374.800 301.600,374.800 300.800 C 374.800 300.000,375.000 299.600,375.400 299.600 C 375.800 299.600,376.000 299.200,376.000 298.400 C 376.000 297.600,376.200 297.200,376.600 297.200 C 377.000 297.200,377.200 296.800,377.200 296.000 C 377.200 295.200,377.400 294.800,377.800 294.800 C 378.200 294.800,378.400 294.400,378.400 293.600 C 378.400 292.800,378.600 292.400,379.000 292.400 C 379.400 292.400,379.600 292.000,379.600 291.200 C 379.600 290.400,379.800 290.000,380.200 290.000 C 380.619 290.000,380.800 289.578,380.800 288.600 C 380.800 287.622,380.981 287.200,381.400 287.200 C 381.800 287.200,382.000 286.800,382.000 286.000 C 382.000 285.200,382.200 284.800,382.600 284.800 C 383.000 284.800,383.200 284.400,383.200 283.600 C 383.200 282.667,383.378 282.400,384.000 282.400 C 384.616 282.400,384.800 282.133,384.800 281.243 C 384.800 280.583,385.058 279.987,385.400 279.855 C 385.796 279.703,386.000 279.077,386.000 278.013 C 386.000 276.846,386.166 276.400,386.600 276.400 C 386.995 276.400,387.200 276.005,387.200 275.243 C 387.200 274.583,387.458 273.987,387.800 273.855 C 388.211 273.698,388.400 273.055,388.400 271.813 C 388.400 270.468,388.555 270.000,389.000 270.000 C 389.444 270.000,389.600 269.533,389.600 268.200 C 389.600 266.867,389.756 266.400,390.200 266.400 C 390.644 266.400,390.800 265.933,390.800 264.600 C 390.800 263.267,390.956 262.800,391.400 262.800 C 391.844 262.800,392.000 262.333,392.000 261.000 C 392.000 259.667,392.156 259.200,392.600 259.200 C 393.053 259.200,393.200 258.711,393.200 257.200 C 393.200 255.689,393.347 255.200,393.800 255.200 C 394.267 255.200,394.400 254.667,394.400 252.800 C 394.400 250.933,394.533 250.400,395.000 250.400 C 395.467 250.400,395.600 249.867,395.600 248.000 C 395.600 246.133,395.733 245.600,396.200 245.600 C 396.683 245.600,396.800 244.978,396.800 242.400 C 396.800 239.822,396.917 239.200,397.400 239.200 C 397.880 239.200,398.000 238.600,398.000 236.200 C 398.000 233.800,398.120 233.200,398.600 233.200 C 399.101 233.200,399.200 232.378,399.200 228.200 C 399.200 225.133,399.355 223.200,399.600 223.200 C 399.862 223.200,400.000 215.200,400.000 200.000 C 400.000 184.800,399.862 176.800,399.600 176.800 C 399.355 176.800,399.200 174.867,399.200 171.800 C 399.200 167.622,399.101 166.800,398.600 166.800 C 398.120 166.800,398.000 166.200,398.000 163.800 C 398.000 161.400,397.880 160.800,397.400 160.800 C 396.917 160.800,396.800 160.178,396.800 157.600 C 396.800 155.022,396.683 154.400,396.200 154.400 C 395.733 154.400,395.600 153.867,395.600 152.000 C 395.600 150.133,395.467 149.600,395.000 149.600 C 394.533 149.600,394.400 149.067,394.400 147.200 C 394.400 145.333,394.267 144.800,393.800 144.800 C 393.347 144.800,393.200 144.311,393.200 142.800 C 393.200 141.289,393.053 140.800,392.600 140.800 C 392.156 140.800,392.000 140.333,392.000 139.000 C 392.000 137.667,391.844 137.200,391.400 137.200 C 390.956 137.200,390.800 136.733,390.800 135.400 C 390.800 134.067,390.644 133.600,390.200 133.600 C 389.756 133.600,389.600 133.133,389.600 131.800 C 389.600 130.467,389.444 130.000,389.000 130.000 C 388.555 130.000,388.400 129.532,388.400 128.187 C 388.400 126.945,388.211 126.302,387.800 126.145 C 387.458 126.013,387.200 125.417,387.200 124.757 C 387.200 123.995,386.995 123.600,386.600 123.600 C 386.166 123.600,386.000 123.154,386.000 121.987 C 386.000 120.923,385.796 120.297,385.400 120.145 C 385.070 120.018,384.800 119.467,384.800 118.920 C 384.800 118.262,384.529 117.854,384.000 117.716 C 383.433 117.568,383.200 117.170,383.200 116.353 C 383.200 115.595,382.995 115.200,382.600 115.200 C 382.200 115.200,382.000 114.800,382.000 114.000 C 382.000 113.200,381.800 112.800,381.400 112.800 C 380.981 112.800,380.800 112.378,380.800 111.400 C 380.800 110.422,380.619 110.000,380.200 110.000 C 379.800 110.000,379.600 109.600,379.600 108.800 C 379.600 108.000,379.400 107.600,379.000 107.600 C 378.600 107.600,378.400 107.200,378.400 106.400 C 378.400 105.600,378.200 105.200,377.800 105.200 C 377.400 105.200,377.200 104.800,377.200 104.000 C 377.200 103.200,377.000 102.800,376.600 102.800 C 376.200 102.800,376.000 102.400,376.000 101.600 C 376.000 100.800,375.800 100.400,375.400 100.400 C 375.000 100.400,374.800 100.000,374.800 99.200 C 374.800 98.400,374.600 98.000,374.200 98.000 C 373.870 98.000,373.600 97.730,373.600 97.400 C 373.600 97.070,373.330 96.800,373.000 96.800 C 372.599 96.800,372.400 96.399,372.400 95.587 C 372.400 94.879,372.151 94.279,371.800 94.145 C 371.470 94.018,371.200 93.580,371.200 93.171 C 371.200 92.762,370.663 91.878,370.006 91.206 C 369.349 90.534,368.699 89.537,368.562 88.992 C 368.425 88.446,368.063 88.000,367.757 88.000 C 367.450 88.000,367.200 87.730,367.200 87.400 C 367.200 87.070,366.930 86.800,366.600 86.800 C 366.200 86.800,366.000 86.400,366.000 85.600 C 366.000 84.800,365.800 84.400,365.400 84.400 C 365.070 84.400,364.800 84.130,364.800 83.800 C 364.800 83.470,364.530 83.200,364.200 83.200 C 363.870 83.200,363.600 82.930,363.600 82.600 C 363.600 82.270,363.330 82.000,363.000 82.000 C 362.600 82.000,362.400 81.600,362.400 80.800 C 362.400 80.000,362.200 79.600,361.800 79.600 C 361.467 79.600,361.200 79.244,361.200 78.800 C 361.200 78.356,360.933 78.000,360.600 78.000 C 360.270 78.000,360.000 77.730,360.000 77.400 C 360.000 77.070,359.730 76.800,359.400 76.800 C 359.025 76.800,358.800 76.421,358.800 75.787 C 358.800 75.231,358.530 74.671,358.200 74.545 C 357.870 74.418,357.600 74.064,357.600 73.757 C 357.600 73.451,357.330 73.200,357.000 73.200 C 356.670 73.200,356.400 72.930,356.400 72.600 C 356.400 72.270,356.130 72.000,355.800 72.000 C 355.470 72.000,355.200 71.730,355.200 71.400 C 355.200 71.070,354.930 70.800,354.600 70.800 C 354.270 70.800,354.000 70.468,354.000 70.062 C 354.000 69.193,352.389 67.200,351.687 67.200 C 351.419 67.200,351.200 66.930,351.200 66.600 C 351.200 66.270,350.930 66.000,350.600 66.000 C 350.270 66.000,350.000 65.730,350.000 65.400 C 350.000 65.070,349.730 64.800,349.400 64.800 C 349.070 64.800,348.800 64.524,348.800 64.187 C 348.800 63.851,348.530 63.471,348.200 63.345 C 347.870 63.218,347.600 62.864,347.600 62.557 C 347.600 62.251,347.330 62.000,347.000 62.000 C 346.670 62.000,346.400 61.730,346.400 61.400 C 346.400 61.070,346.130 60.800,345.800 60.800 C 345.470 60.800,345.200 60.530,345.200 60.200 C 345.200 59.870,344.930 59.600,344.600 59.600 C 344.270 59.600,344.000 59.330,344.000 59.000 C 344.000 58.670,343.730 58.400,343.400 58.400 C 343.070 58.400,342.800 58.130,342.800 57.800 C 342.800 57.470,342.530 57.200,342.200 57.200 C 341.870 57.200,341.600 56.930,341.600 56.600 C 341.600 56.270,341.330 56.000,341.000 56.000 C 340.670 56.000,340.400 55.730,340.400 55.400 C 340.400 55.070,340.130 54.800,339.800 54.800 C 339.470 54.800,339.200 54.530,339.200 54.200 C 339.200 53.870,338.930 53.600,338.600 53.600 C 338.270 53.600,338.000 53.330,338.000 53.000 C 338.000 52.670,337.730 52.400,337.400 52.400 C 337.070 52.400,336.800 52.130,336.800 51.800 C 336.800 51.467,336.444 51.200,336.000 51.200 C 335.556 51.200,335.200 50.933,335.200 50.600 C 335.200 50.270,334.930 50.000,334.600 50.000 C 334.270 50.000,334.000 49.730,334.000 49.400 C 334.000 49.070,333.730 48.800,333.400 48.800 C 333.070 48.800,332.800 48.530,332.800 48.200 C 332.800 47.870,332.530 47.600,332.200 47.600 C 331.870 47.600,331.600 47.326,331.600 46.990 C 331.600 46.632,331.104 46.281,330.400 46.140 C 329.740 46.008,329.200 45.653,329.200 45.350 C 329.200 45.047,328.930 44.800,328.600 44.800 C 328.270 44.800,328.000 44.530,328.000 44.200 C 328.000 43.870,327.730 43.600,327.400 43.600 C 327.070 43.600,326.800 43.330,326.800 43.000 C 326.800 42.670,326.549 42.400,326.243 42.400 C 325.936 42.400,325.582 42.130,325.455 41.800 C 325.329 41.470,324.769 41.200,324.213 41.200 C 323.579 41.200,323.200 40.975,323.200 40.600 C 323.200 40.270,322.930 40.000,322.600 40.000 C 322.270 40.000,322.000 39.730,322.000 39.400 C 322.000 39.070,321.749 38.800,321.443 38.800 C 321.136 38.800,320.782 38.530,320.655 38.200 C 320.521 37.849,319.921 37.600,319.213 37.600 C 318.401 37.600,318.000 37.401,318.000 37.000 C 318.000 36.670,317.730 36.400,317.400 36.400 C 317.070 36.400,316.800 36.130,316.800 35.800 C 316.800 35.470,316.530 35.200,316.200 35.200 C 315.870 35.200,315.600 34.930,315.600 34.600 C 315.600 34.200,315.200 34.000,314.400 34.000 C 313.600 34.000,313.200 33.800,313.200 33.400 C 313.200 33.070,312.930 32.800,312.600 32.800 C 312.270 32.800,312.000 32.530,312.000 32.200 C 312.000 31.870,311.653 31.600,311.228 31.600 C 310.804 31.600,309.789 30.970,308.973 30.200 C 308.156 29.430,307.173 28.800,306.787 28.800 C 306.401 28.800,305.982 28.530,305.855 28.200 C 305.721 27.849,305.121 27.600,304.413 27.600 C 303.601 27.600,303.200 27.401,303.200 27.000 C 303.200 26.670,302.930 26.400,302.600 26.400 C 302.270 26.400,302.000 26.130,302.000 25.800 C 302.000 25.400,301.600 25.200,300.800 25.200 C 300.000 25.200,299.600 25.000,299.600 24.600 C 299.600 24.200,299.200 24.000,298.400 24.000 C 297.600 24.000,297.200 23.800,297.200 23.400 C 297.200 23.000,296.800 22.800,296.000 22.800 C 295.200 22.800,294.800 22.600,294.800 22.200 C 294.800 21.800,294.400 21.600,293.600 21.600 C 292.800 21.600,292.400 21.400,292.400 21.000 C 292.400 20.600,292.000 20.400,291.200 20.400 C 290.400 20.400,290.000 20.200,290.000 19.800 C 290.000 19.381,289.578 19.200,288.600 19.200 C 287.622 19.200,287.200 19.019,287.200 18.600 C 287.200 18.200,286.800 18.000,286.000 18.000 C 285.200 18.000,284.800 17.800,284.800 17.400 C 284.800 17.000,284.400 16.800,283.600 16.800 C 282.841 16.800,282.400 16.595,282.400 16.243 C 282.400 15.628,281.326 15.075,280.784 15.410 C 280.595 15.527,280.238 15.245,279.991 14.784 C 279.688 14.217,279.196 13.968,278.471 14.015 C 276.726 14.129,276.400 14.032,276.400 13.400 C 276.400 13.005,276.005 12.800,275.243 12.800 C 274.583 12.800,273.987 12.542,273.855 12.200 C 273.698 11.789,273.055 11.600,271.813 11.600 C 270.468 11.600,270.000 11.445,270.000 11.000 C 270.000 10.556,269.533 10.400,268.200 10.400 C 266.867 10.400,266.400 10.244,266.400 9.800 C 266.400 9.405,266.005 9.200,265.243 9.200 C 264.583 9.200,263.987 8.942,263.855 8.600 C 263.689 8.167,263.010 8.000,261.413 8.000 C 259.713 8.000,259.200 7.861,259.200 7.400 C 259.200 6.947,258.711 6.800,257.200 6.800 C 255.689 6.800,255.200 6.653,255.200 6.200 C 255.200 5.733,254.667 5.600,252.800 5.600 C 250.933 5.600,250.400 5.467,250.400 5.000 C 250.400 4.533,249.867 4.400,248.000 4.400 C 246.133 4.400,245.600 4.267,245.600 3.800 C 245.600 3.317,244.978 3.200,242.400 3.200 C 239.822 3.200,239.200 3.083,239.200 2.600 C 239.200 2.120,238.600 2.000,236.200 2.000 C 233.800 2.000,233.200 1.880,233.200 1.400 C 233.200 0.899,232.378 0.800,228.200 0.800 C 225.133 0.800,223.200 0.645,223.200 0.400 C 223.200 0.138,215.200 0.000,200.000 0.000 C 184.800 0.000,176.800 0.138,176.800 0.400 " stroke="none" fill="#1c74f4" fill-rule="evenodd"></path><path id="path2" d="M239.200 78.031 C 237.550 78.212,234.199 78.523,231.753 78.723 C 229.308 78.923,227.093 79.219,226.833 79.380 C 226.573 79.540,225.514 79.815,224.480 79.989 L 222.600 80.306 224.274 80.353 C 225.195 80.379,226.455 80.188,227.074 79.928 C 228.325 79.404,240.233 78.335,244.600 78.355 C 250.916 78.384,267.088 79.253,268.270 79.628 C 268.968 79.849,271.398 80.101,273.670 80.188 C 277.572 80.337,277.634 80.327,274.800 80.014 C 273.150 79.832,270.720 79.485,269.400 79.244 C 268.080 79.002,264.930 78.803,262.400 78.800 C 259.870 78.798,257.170 78.633,256.400 78.435 C 254.391 77.917,242.740 77.644,239.200 78.031 M219.600 81.020 C 218.042 81.466,217.961 81.538,219.000 81.550 C 219.660 81.558,220.740 81.317,221.400 81.014 C 222.890 80.332,221.991 80.335,219.600 81.020 M279.312 80.802 C 279.704 81.050,281.594 81.312,283.512 81.384 C 286.645 81.501,286.756 81.482,284.600 81.201 C 283.280 81.029,281.390 80.767,280.400 80.619 C 278.981 80.407,278.751 80.446,279.312 80.802 M215.600 82.225 C 214.338 82.703,214.301 82.757,215.224 82.777 C 215.786 82.790,216.596 82.536,217.024 82.213 C 217.957 81.507,217.489 81.511,215.600 82.225 M288.100 82.157 C 288.753 82.653,288.800 84.311,288.800 106.914 L 288.800 131.140 271.661 131.270 C 259.416 131.363,254.362 131.533,253.961 131.864 C 253.652 132.120,252.680 132.458,251.800 132.617 C 249.951 132.950,247.795 133.958,248.876 133.984 C 249.248 133.993,249.651 133.841,249.771 133.646 C 249.892 133.452,250.847 133.164,251.895 133.007 C 252.943 132.850,254.160 132.514,254.600 132.261 C 255.153 131.942,260.597 131.738,272.200 131.600 L 289.000 131.400 289.110 107.400 C 289.226 82.211,289.202 81.592,288.092 81.613 C 287.440 81.625,287.440 81.656,288.100 82.157 M212.400 83.298 C 211.850 83.542,210.590 84.081,209.600 84.495 C 205.186 86.343,200.898 88.800,202.087 88.800 C 202.453 88.800,202.864 88.619,203.001 88.399 C 203.314 87.892,211.367 84.000,212.102 84.000 C 212.402 84.000,212.996 83.736,213.424 83.413 C 214.334 82.724,213.823 82.667,212.400 83.298 M200.000 89.500 C 194.213 93.309,186.520 100.420,183.643 104.619 L 182.287 106.600 184.126 104.600 C 185.137 103.500,185.972 102.464,185.982 102.297 C 186.014 101.754,193.419 94.632,195.234 93.400 C 196.205 92.740,197.180 91.995,197.400 91.743 C 197.620 91.492,198.565 90.815,199.500 90.238 C 200.435 89.662,201.200 89.102,201.200 88.995 C 201.200 88.726,201.135 88.753,200.000 89.500 M181.356 107.865 C 180.967 108.489,180.480 109.225,180.275 109.500 C 180.031 109.827,180.062 110.000,180.364 110.000 C 180.617 110.000,180.937 109.685,181.073 109.300 C 181.210 108.915,181.593 108.284,181.925 107.898 C 182.257 107.511,182.424 107.091,182.296 106.963 C 182.168 106.835,181.745 107.241,181.356 107.865 M178.548 112.482 C 176.828 115.653,175.344 118.902,174.294 121.800 C 172.451 126.881,171.573 129.853,171.396 131.600 C 171.318 132.370,171.349 132.550,171.465 132.000 C 171.582 131.450,171.832 130.811,172.021 130.580 C 172.210 130.349,172.491 129.370,172.646 128.404 C 172.800 127.438,173.167 126.187,173.461 125.624 C 173.755 125.061,174.002 124.240,174.010 123.800 C 174.019 123.360,174.290 122.651,174.613 122.224 C 174.936 121.796,175.200 121.181,175.200 120.855 C 175.200 120.324,177.115 115.918,178.006 114.400 C 179.214 112.342,180.014 110.680,179.867 110.534 C 179.773 110.440,179.180 111.317,178.548 112.482 M170.481 135.088 C 170.216 135.971,170.027 137.392,170.060 138.246 C 170.110 139.537,170.144 139.597,170.264 138.600 C 170.343 137.940,170.608 136.746,170.853 135.946 C 171.097 135.147,171.222 134.266,171.129 133.988 C 171.037 133.711,170.745 134.206,170.481 135.088 M246.400 134.600 C 245.766 135.363,246.361 135.356,247.376 134.587 C 247.998 134.117,248.028 134.000,247.525 134.000 C 247.180 134.000,246.674 134.270,246.400 134.600 M242.800 136.645 C 239.568 139.166,236.245 143.017,234.853 145.854 C 234.112 147.364,233.257 149.110,232.953 149.732 C 232.649 150.355,232.412 151.435,232.427 152.132 C 232.452 153.313,232.491 153.277,232.989 151.600 C 233.986 148.245,234.119 147.902,235.053 146.250 C 235.567 145.342,236.150 144.240,236.350 143.800 C 236.931 142.520,241.555 137.984,243.760 136.532 C 244.872 135.799,245.516 135.209,245.191 135.221 C 244.866 135.232,243.790 135.873,242.800 136.645 M169.262 143.800 C 168.874 146.806,168.778 154.161,168.876 173.400 L 169.006 199.000 169.103 172.520 C 169.165 155.572,169.354 145.320,169.629 144.041 C 169.864 142.942,169.994 141.538,169.918 140.921 C 169.841 140.305,169.546 141.600,169.262 143.800 M231.621 155.100 C 231.392 155.925,231.229 157.410,231.259 158.400 L 231.313 160.200 231.601 158.200 C 231.760 157.100,232.028 155.615,232.195 154.900 C 232.619 153.093,232.131 153.263,231.621 155.100 M231.206 199.020 C 231.186 200.367,231.860 200.400,259.322 200.400 L 286.484 200.400 286.283 201.900 C 286.172 202.725,285.888 204.120,285.650 205.000 C 285.413 205.880,285.242 207.590,285.271 208.800 L 285.322 211.000 285.616 208.600 C 285.777 207.280,286.146 204.985,286.436 203.501 C 287.223 199.463,289.767 199.816,258.897 199.689 C 238.105 199.604,231.762 199.465,231.523 199.089 C 231.348 198.814,231.210 198.784,231.206 199.020 M143.800 199.497 C 121.052 199.592,118.959 199.657,118.500 200.277 C 117.788 201.239,117.769 256.809,118.480 257.520 C 118.843 257.883,124.985 258.000,143.672 258.000 L 168.385 258.000 168.604 258.900 C 168.725 259.395,168.773 291.176,168.712 329.524 C 168.650 367.872,168.717 398.832,168.860 398.324 C 169.502 396.045,169.225 259.014,168.577 258.089 L 167.955 257.200 143.175 257.200 L 118.395 257.200 118.497 228.900 L 118.600 200.600 143.567 200.400 C 163.041 200.244,168.570 200.090,168.700 199.700 C 168.792 199.425,168.807 199.244,168.733 199.297 C 168.660 199.350,157.440 199.440,143.800 199.497 M284.608 211.987 C 284.459 212.229,284.273 213.816,284.196 215.513 C 284.118 217.211,284.132 218.060,284.226 217.400 C 284.320 216.740,284.593 215.241,284.834 214.069 C 285.259 211.998,285.161 211.092,284.608 211.987 M283.268 221.000 C 282.977 222.320,282.811 224.210,282.900 225.200 C 283.049 226.873,283.065 226.836,283.130 224.674 C 283.169 223.394,283.391 221.990,283.625 221.554 C 283.858 221.118,283.993 220.274,283.923 219.680 C 283.831 218.891,283.655 219.246,283.268 221.000 M282.055 228.700 C 281.849 229.525,281.572 231.494,281.439 233.075 C 281.307 234.657,281.019 236.423,280.800 237.001 C 280.580 237.579,280.425 238.895,280.456 239.926 L 280.513 241.800 280.825 239.800 C 280.997 238.700,281.409 236.000,281.742 233.800 C 282.074 231.600,282.471 229.215,282.623 228.500 C 283.009 226.690,282.515 226.864,282.055 228.700 M279.691 244.177 C 279.421 245.186,279.221 246.684,279.246 247.506 C 279.272 248.328,279.364 248.640,279.451 248.200 C 279.538 247.760,279.810 246.479,280.056 245.353 C 280.630 242.719,280.335 241.768,279.691 244.177 M278.464 252.237 C 278.169 253.578,278.010 255.108,278.109 255.637 C 278.253 256.396,278.303 256.319,278.346 255.274 C 278.375 254.544,278.591 253.591,278.824 253.155 C 279.057 252.720,279.192 251.786,279.124 251.082 C 279.019 250.000,278.916 250.181,278.464 252.237 M255.037 257.103 C 231.747 257.209,231.184 257.248,231.212 258.749 C 231.223 259.320,231.275 259.314,231.632 258.700 C 232.013 258.046,233.545 258.000,254.796 258.000 C 270.482 258.000,277.635 257.867,277.816 257.573 C 278.195 256.960,279.710 256.991,255.037 257.103 " stroke="none" fill="#9bc4fc" fill-rule="evenodd"></path><path id="path3" d="M234.400 77.469 C 233.630 77.572,232.820 77.845,232.600 78.075 C 232.322 78.366,232.872 78.398,234.400 78.179 C 237.022 77.803,254.615 77.816,258.600 78.197 C 260.884 78.415,261.307 78.370,260.896 77.948 C 260.389 77.429,237.743 77.019,234.400 77.469 M226.200 78.685 C 225.760 78.791,225.220 79.065,225.000 79.293 C 224.725 79.579,224.912 79.618,225.600 79.418 C 226.150 79.258,227.860 78.990,229.400 78.822 L 232.200 78.517 229.600 78.505 C 228.170 78.498,226.640 78.579,226.200 78.685 M266.200 78.798 C 268.840 78.967,271.810 79.240,272.800 79.404 C 274.286 79.649,274.513 79.609,274.101 79.172 C 273.736 78.784,271.964 78.622,267.501 78.566 L 261.400 78.490 266.200 78.798 M220.176 80.230 C 219.428 80.836,219.437 80.850,220.400 80.595 C 220.950 80.449,222.030 80.187,222.800 80.011 L 224.200 79.692 222.576 79.646 C 221.633 79.619,220.628 79.864,220.176 80.230 M277.600 79.981 C 279.250 80.152,281.410 80.418,282.400 80.571 C 283.948 80.812,284.088 80.779,283.400 80.342 C 282.917 80.034,281.017 79.800,278.600 79.751 L 274.600 79.670 277.600 79.981 M215.776 81.387 C 215.349 81.710,214.667 81.980,214.260 81.987 C 213.542 82.000,212.354 82.459,208.956 84.037 C 208.052 84.456,207.107 84.800,206.856 84.800 C 206.605 84.800,206.400 84.966,206.400 85.168 C 206.400 85.371,205.860 85.655,205.200 85.800 C 204.540 85.945,204.000 86.190,204.000 86.344 C 204.000 86.498,203.505 86.841,202.900 87.105 C 202.295 87.369,201.260 87.946,200.600 88.387 C 199.940 88.828,198.995 89.366,198.500 89.584 C 198.005 89.802,197.600 90.163,197.600 90.385 C 197.600 90.608,198.725 90.083,200.100 89.217 C 201.475 88.352,203.950 86.982,205.600 86.172 C 207.250 85.363,209.050 84.477,209.600 84.204 C 210.636 83.690,217.193 81.416,218.600 81.082 C 219.069 80.971,218.811 80.874,217.976 80.846 C 217.194 80.821,216.204 81.064,215.776 81.387 M285.800 81.074 C 288.624 81.320,289.197 81.558,289.246 82.508 C 289.283 83.214,289.332 83.250,289.479 82.681 C 289.821 81.366,288.867 80.795,286.451 80.867 C 284.672 80.920,284.535 80.964,285.800 81.074 M194.846 92.220 C 193.882 92.979,192.675 94.049,192.165 94.600 C 191.655 95.150,191.152 95.600,191.046 95.600 C 190.802 95.600,186.800 99.487,186.800 99.725 C 186.800 99.822,186.114 100.629,185.276 101.519 C 184.438 102.409,183.223 103.916,182.576 104.868 C 181.929 105.821,181.265 106.660,181.100 106.733 C 180.935 106.807,180.800 107.016,180.800 107.198 C 180.800 107.381,180.170 108.487,179.400 109.656 C 178.630 110.825,178.000 112.011,178.000 112.291 C 178.000 112.571,177.823 112.800,177.608 112.800 C 177.392 112.800,177.091 113.293,176.940 113.896 C 176.789 114.499,176.425 115.232,176.133 115.525 C 175.840 115.818,175.594 116.359,175.587 116.729 C 175.580 117.098,175.310 117.749,174.987 118.176 C 174.664 118.604,174.407 119.324,174.416 119.776 C 174.427 120.397,174.570 120.281,174.995 119.303 C 179.772 108.313,186.846 98.908,194.900 92.837 C 196.165 91.884,197.200 91.036,197.200 90.952 C 197.200 90.555,196.451 90.958,194.846 92.220 M173.369 121.783 C 173.233 122.323,173.215 122.998,173.329 123.283 C 173.443 123.567,173.551 123.406,173.568 122.924 C 173.586 122.442,173.780 121.936,174.000 121.800 C 174.514 121.482,174.519 120.800,174.008 120.800 C 173.792 120.800,173.504 121.242,173.369 121.783 M172.172 125.368 C 172.039 125.901,172.014 126.666,172.118 127.068 C 172.247 127.567,172.322 127.457,172.354 126.724 C 172.379 126.132,172.580 125.536,172.800 125.400 C 173.314 125.082,173.319 124.400,172.808 124.400 C 172.592 124.400,172.306 124.836,172.172 125.368 M171.214 128.774 C 170.986 129.199,170.821 130.144,170.846 130.874 L 170.892 132.200 171.192 130.800 C 171.357 130.030,171.626 129.085,171.789 128.700 C 172.192 127.750,171.730 127.809,171.214 128.774 M289.232 130.695 L 289.200 131.590 274.700 131.700 L 260.200 131.810 274.713 131.905 C 289.936 132.005,290.140 131.983,289.469 130.313 C 289.356 130.031,289.249 130.203,289.232 130.695 M254.600 132.611 L 253.000 133.139 254.600 133.155 C 255.480 133.164,256.650 132.914,257.200 132.600 L 258.200 132.028 257.200 132.056 C 256.650 132.071,255.480 132.321,254.600 132.611 M170.014 133.574 C 169.786 133.999,169.621 135.124,169.646 136.074 L 169.692 137.800 169.990 136.400 C 170.153 135.630,170.422 134.505,170.587 133.900 C 170.934 132.627,170.617 132.447,170.014 133.574 M249.600 133.892 C 247.630 134.794,244.929 136.106,243.773 136.724 C 241.243 138.074,235.200 145.034,235.200 146.596 C 235.200 146.902,235.041 147.251,234.847 147.371 C 234.337 147.686,232.939 152.446,232.195 156.400 C 231.651 159.290,231.574 162.771,231.678 179.600 L 231.800 199.400 259.200 199.600 L 286.600 199.800 286.566 202.400 C 286.548 203.830,286.389 205.720,286.214 206.600 C 285.945 207.951,285.982 208.119,286.447 207.681 C 286.841 207.310,286.998 206.058,286.999 203.281 L 287.000 199.400 259.500 199.297 L 232.000 199.194 232.000 179.021 C 232.000 167.248,232.152 158.753,232.366 158.621 C 232.567 158.496,232.861 157.021,233.018 155.343 C 233.176 153.664,233.550 151.820,233.850 151.245 C 234.150 150.670,234.402 149.840,234.410 149.400 C 234.419 148.960,234.690 148.251,235.013 147.824 C 235.336 147.396,235.600 146.721,235.600 146.324 C 235.600 145.926,235.784 145.600,236.010 145.600 C 236.235 145.600,236.595 145.195,236.809 144.700 C 237.513 143.072,241.537 138.400,242.235 138.400 C 242.481 138.400,244.927 136.696,245.204 136.332 C 245.316 136.184,245.901 135.940,246.504 135.788 C 247.107 135.637,247.600 135.373,247.600 135.201 C 247.600 135.029,248.222 134.772,248.983 134.630 C 250.762 134.296,252.977 133.194,251.800 133.228 C 251.360 133.241,250.370 133.540,249.600 133.892 M168.880 140.619 C 168.616 141.605,168.433 143.894,168.474 145.706 C 168.526 148.029,168.582 148.352,168.664 146.800 C 168.728 145.590,168.994 143.384,169.255 141.898 C 169.804 138.767,169.580 138.001,168.880 140.619 M143.200 199.097 C 120.264 199.192,118.159 199.257,117.700 199.877 C 117.311 200.403,117.200 206.870,117.200 229.000 C 117.200 251.132,117.311 257.597,117.700 258.121 C 118.232 258.838,168.400 259.411,168.400 258.700 C 168.400 258.535,157.250 258.400,143.623 258.400 L 118.845 258.400 118.223 257.511 C 117.482 256.453,117.261 202.543,117.990 200.626 L 118.380 199.600 143.166 199.600 C 159.259 199.600,168.039 199.460,168.200 199.200 C 168.336 198.980,168.392 198.844,168.324 198.897 C 168.256 198.950,156.950 199.040,143.200 199.097 M285.676 209.923 C 285.634 210.870,285.401 212.435,285.159 213.399 C 284.578 215.705,284.952 216.704,285.565 214.485 C 285.826 213.541,285.974 211.741,285.895 210.485 C 285.775 208.570,285.739 208.479,285.676 209.923 M284.265 218.700 C 284.039 221.224,283.430 225.277,282.718 229.000 C 282.466 230.320,282.127 232.570,281.965 234.000 C 281.491 238.192,280.775 242.808,280.166 245.600 C 279.853 247.030,279.598 248.766,279.599 249.457 C 279.600 251.000,278.446 256.741,277.942 257.697 C 277.601 258.345,275.976 258.401,254.688 258.497 L 231.800 258.600 231.798 328.200 L 231.797 397.800 231.899 328.303 L 232.002 258.806 255.061 258.703 L 278.120 258.600 278.718 257.000 C 279.047 256.120,279.544 253.600,279.822 251.400 C 280.101 249.200,280.520 246.680,280.755 245.800 C 280.989 244.920,281.185 243.291,281.190 242.180 C 281.196 241.069,281.370 239.989,281.578 239.780 C 281.786 239.571,282.133 237.690,282.348 235.600 C 282.564 233.510,282.926 230.990,283.153 230.000 C 283.380 229.010,283.573 227.291,283.583 226.180 C 283.592 225.069,283.799 223.961,284.042 223.718 C 284.489 223.271,285.099 216.400,284.692 216.400 C 284.570 216.400,284.378 217.435,284.265 218.700 " stroke="none" fill="#549cf4" fill-rule="evenodd"></path><path id="path4" d="M236.200 77.976 C 235.746 78.157,236.699 78.217,238.400 78.115 C 242.307 77.882,242.881 77.664,239.600 77.660 C 238.170 77.658,236.640 77.800,236.200 77.976 M248.000 77.847 C 250.261 78.133,256.292 78.179,255.863 77.906 C 255.608 77.744,253.510 77.636,251.200 77.666 C 248.890 77.696,247.450 77.777,248.000 77.847 M232.705 78.683 C 233.202 78.779,233.922 78.775,234.305 78.675 C 234.687 78.575,234.280 78.496,233.400 78.501 C 232.520 78.505,232.207 78.587,232.705 78.683 M258.307 78.690 C 259.026 78.779,260.106 78.777,260.707 78.686 C 261.308 78.595,260.720 78.522,259.400 78.524 C 258.080 78.526,257.588 78.601,258.307 78.690 M268.500 79.076 C 268.885 79.176,269.515 79.176,269.900 79.076 C 270.285 78.975,269.970 78.893,269.200 78.893 C 268.430 78.893,268.115 78.975,268.500 79.076 M272.900 79.876 C 273.285 79.976,273.915 79.976,274.300 79.876 C 274.685 79.775,274.370 79.693,273.600 79.693 C 272.830 79.693,272.515 79.775,272.900 79.876 M278.100 80.276 C 278.485 80.376,279.115 80.376,279.500 80.276 C 279.885 80.175,279.570 80.093,278.800 80.093 C 278.030 80.093,277.715 80.175,278.100 80.276 M289.388 106.600 C 289.388 119.580,289.438 124.832,289.500 118.271 C 289.562 111.711,289.561 101.091,289.500 94.671 C 289.438 88.252,289.387 93.620,289.388 106.600 M196.000 92.049 C 194.606 93.271,194.605 93.272,195.888 92.419 C 196.596 91.948,197.282 91.391,197.412 91.181 C 197.797 90.557,197.477 90.754,196.000 92.049 M188.985 98.100 L 187.000 100.200 189.100 98.215 C 190.255 97.123,191.200 96.178,191.200 96.115 C 191.200 95.817,190.829 96.149,188.985 98.100 M182.000 106.400 C 181.530 107.060,181.236 107.600,181.346 107.600 C 181.456 107.600,181.930 107.060,182.400 106.400 C 182.870 105.740,183.164 105.200,183.054 105.200 C 182.944 105.200,182.470 105.740,182.000 106.400 M257.900 131.882 C 258.395 131.978,259.205 131.978,259.700 131.882 C 260.195 131.787,259.790 131.709,258.800 131.709 C 257.810 131.709,257.405 131.787,257.900 131.882 M169.693 138.800 C 169.693 139.570,169.775 139.885,169.876 139.500 C 169.976 139.115,169.976 138.485,169.876 138.100 C 169.775 137.715,169.693 138.030,169.693 138.800 M168.893 144.000 C 168.893 144.770,168.975 145.085,169.076 144.700 C 169.176 144.315,169.176 143.685,169.076 143.300 C 168.975 142.915,168.893 143.230,168.893 144.000 M168.400 174.080 C 168.290 188.094,168.336 199.424,168.503 199.257 C 168.670 199.090,168.760 187.624,168.703 173.777 L 168.600 148.600 168.400 174.080 M231.856 156.084 C 231.721 156.588,231.627 157.360,231.646 157.800 C 231.665 158.240,231.845 157.898,232.046 157.040 C 232.436 155.378,232.270 154.540,231.856 156.084 M231.385 179.400 C 231.385 190.180,231.437 194.533,231.500 189.072 C 231.563 183.612,231.563 174.792,231.500 169.472 C 231.437 164.153,231.385 168.620,231.385 179.400 M117.789 229.000 C 117.789 244.400,117.839 250.642,117.900 242.871 C 117.961 235.100,117.961 222.500,117.900 214.871 C 117.839 207.242,117.789 213.600,117.789 229.000 M284.093 219.600 C 284.093 220.370,284.175 220.685,284.276 220.300 C 284.376 219.915,284.376 219.285,284.276 218.900 C 284.175 218.515,284.093 218.830,284.093 219.600 M281.693 235.200 C 281.693 235.970,281.775 236.285,281.876 235.900 C 281.976 235.515,281.976 234.885,281.876 234.500 C 281.775 234.115,281.693 234.430,281.693 235.200 M280.493 242.800 C 280.493 243.570,280.575 243.885,280.676 243.500 C 280.776 243.115,280.776 242.485,280.676 242.100 C 280.575 241.715,280.493 242.030,280.493 242.800 M279.829 245.829 C 279.681 246.415,279.638 246.972,279.732 247.066 C 279.827 247.160,280.024 246.758,280.171 246.171 C 280.319 245.585,280.362 245.028,280.268 244.934 C 280.173 244.840,279.976 245.242,279.829 245.829 M279.301 250.200 C 279.305 251.080,279.387 251.393,279.483 250.895 C 279.579 250.398,279.575 249.678,279.475 249.295 C 279.375 248.913,279.296 249.320,279.301 250.200 M278.649 253.415 C 278.512 253.773,278.418 254.456,278.441 254.933 C 278.467 255.481,278.603 255.286,278.810 254.403 C 279.160 252.916,279.065 252.333,278.649 253.415 M118.349 257.700 C 118.863 258.355,120.490 258.394,143.749 258.303 L 168.600 258.206 143.837 258.100 C 124.852 258.019,118.926 257.878,118.437 257.497 C 117.873 257.057,117.863 257.081,118.349 257.700 M255.017 257.900 C 242.486 257.959,232.100 258.140,231.937 258.303 C 231.773 258.467,241.930 258.552,254.506 258.493 C 268.816 258.427,277.520 258.240,277.767 257.993 C 277.983 257.777,278.079 257.643,277.980 257.697 C 277.881 257.750,267.547 257.841,255.017 257.900 M168.596 328.200 C 168.596 366.480,168.643 382.081,168.700 362.868 C 168.757 343.656,168.757 312.336,168.700 293.268 C 168.643 274.201,168.596 289.920,168.596 328.200 M231.396 328.200 C 231.396 366.260,231.443 381.771,231.500 362.668 C 231.557 343.566,231.557 312.426,231.500 293.468 C 231.443 274.511,231.396 290.140,231.396 328.200 " stroke="none" fill="#84b4fc" fill-rule="evenodd"></path></g></svg>