<svg id="svg" version="1.1" xmlns="http://www.w3.org/2000/svg" xmlns:xlink="http://www.w3.org/1999/xlink" width="400" height="400" viewBox="0, 0, 400,400"><g id="svgg"><path id="path0" d="M-0.000 304.999 L 0.000 400.000 95.001 400.000 L 190.002 400.000 189.901 305.100 L 189.800 210.200 94.900 210.099 L -0.000 209.998 -0.000 304.999 " stroke="none" fill="#04a4ec" fill-rule="evenodd"></path><path id="path1" d="M190.400 94.400 C 190.400 188.267,190.395 188.805,189.600 189.600 C 188.805 190.395,188.267 190.400,94.400 190.400 L 0.000 190.400 -0.000 200.199 L -0.000 209.998 94.900 210.099 L 189.800 210.200 189.901 305.100 L 190.002 400.000 200.001 400.000 L 210.000 400.000 210.000 305.480 C 210.000 232.498,210.109 210.851,210.480 210.480 C 210.851 210.109,232.498 210.000,305.480 210.000 L 400.000 210.000 400.000 200.001 L 400.000 190.002 305.100 189.901 L 210.200 189.800 210.099 94.900 L 209.998 0.000 200.199 0.000 L 190.400 0.000 190.400 94.400 " stroke="none" fill="#fcfcfc" fill-rule="evenodd"></path><path id="path2" d="M190.197 94.400 C 190.197 146.430,190.243 167.715,190.300 141.700 C 190.357 115.685,190.357 73.115,190.300 47.100 C 190.243 21.085,190.197 42.370,190.197 94.400 M47.100 190.300 C 73.115 190.357,115.685 190.357,141.700 190.300 C 167.715 190.243,146.430 190.197,94.400 190.197 C 42.370 190.197,21.085 190.243,47.100 190.300 M210.480 210.480 C 210.109 210.851,210.000 232.498,210.000 305.480 L 210.000 400.000 305.000 400.000 L 400.000 400.000 400.000 305.000 L 400.000 210.000 305.480 210.000 C 232.498 210.000,210.851 210.109,210.480 210.480 " stroke="none" fill="#fcbc04" fill-rule="evenodd"></path><path id="path3" d="M210.099 94.900 L 210.200 189.800 305.100 189.901 L 400.000 190.002 400.000 95.001 L 400.000 0.000 304.999 -0.000 L 209.998 -0.000 210.099 94.900 " stroke="none" fill="#7cbc04" fill-rule="evenodd"></path><path id="path4" d="M0.000 95.001 L 0.000 190.002 94.900 189.901 L 189.800 189.800 189.901 94.900 L 190.002 0.000 95.001 0.000 L 0.000 0.000 0.000 95.001 " stroke="none" fill="#f45323" fill-rule="evenodd"></path></g></svg>