<?xml version="1.0" standalone="no"?>
<!DOCTYPE svg PUBLIC "-//W3C//DTD SVG 20010904//EN"
 "http://www.w3.org/TR/2001/REC-SVG-20010904/DTD/svg10.dtd">
<svg version="1.0" xmlns="http://www.w3.org/2000/svg"
 width="866.000000pt" height="650.000000pt" viewBox="0 0 866.000000 650.000000"
 preserveAspectRatio="xMidYMid meet">
<metadata>
Created by potrace 1.16, written by Peter Selinger 2001-2019
</metadata>
<g transform="translate(0.000000,650.000000) scale(0.100000,-0.100000)"
fill="#000000" stroke="none">
<path d="M810 4175 l0 -445 725 0 725 0 0 -280 0 -280 -725 0 -725 0 0 -80 0
-80 805 0 805 0 0 445 0 445 -725 0 -725 0 0 280 0 280 725 0 725 0 0 80 0 80
-805 0 -805 0 0 -445z"/>
<path d="M2620 3815 l0 -805 805 0 805 0 0 805 0 805 -80 0 -80 0 0 -725 0
-725 -645 0 -645 0 0 725 0 725 -80 0 -80 0 0 -805z"/>
<path d="M2980 3995 l0 -625 445 0 445 0 0 625 0 625 -80 0 -80 0 0 -545 0
-545 -282 2 -283 3 -3 543 -2 542 -80 0 -80 0 0 -625z"/>
<path d="M3344 4607 c-2 -7 -3 -206 -2 -442 l3 -430 83 -3 82 -3 0 446 0 445
-80 0 c-57 0 -82 -4 -86 -13z"/>
<path d="M4430 4540 l0 -80 363 -2 362 -3 3 -722 2 -723 80 0 80 0 0 725 0
725 360 0 360 0 0 80 0 80 -805 0 -805 0 0 -80z"/>
<path d="M6240 4540 l0 -80 725 0 725 0 0 -645 0 -645 -725 0 -725 0 0 -80 0
-80 805 0 805 0 0 805 0 805 -805 0 -805 0 0 -80z"/>
<path d="M1170 4180 l0 -80 625 0 625 0 0 80 0 80 -625 0 -625 0 0 -80z"/>
<path d="M4430 4180 l0 -80 180 0 180 0 0 -545 0 -545 85 0 85 0 -2 623 -3
622 -262 3 -263 2 0 -80z"/>
<path d="M5520 3635 l0 -625 80 0 80 0 0 545 0 545 180 0 180 0 0 80 0 80
-260 0 -260 0 0 -625z"/>
<path d="M6240 4180 l0 -80 545 0 545 0 0 -285 0 -285 -545 0 -545 0 0 -80 0
-80 625 0 625 0 0 445 0 445 -625 0 -625 0 0 -80z"/>
<path d="M4430 3455 l0 -445 80 0 80 0 0 445 0 445 -80 0 -80 0 0 -445z"/>
<path d="M5887 3893 c-4 -3 -7 -204 -7 -445 l0 -438 80 0 80 0 0 445 0 445
-73 0 c-41 0 -77 -3 -80 -7z"/>
<path d="M6247 3893 c-4 -3 -7 -42 -7 -85 l0 -78 445 0 446 0 -3 83 -3 82
-436 3 c-239 1 -439 -1 -442 -5z"/>
<path d="M810 3450 l0 -80 625 0 625 0 0 80 0 80 -625 0 -625 0 0 -80z"/>
<path d="M849 2661 c-59 -59 -26 -118 86 -154 69 -22 70 -23 70 -57 0 -27 -6
-37 -25 -47 -31 -16 -86 -9 -122 17 -22 16 -28 17 -38 6 -16 -21 38 -56 98
-63 80 -9 132 29 132 96 0 37 -34 65 -101 85 -76 23 -91 34 -87 64 5 42 46 60
100 44 60 -18 70 -19 75 -5 7 19 -52 43 -107 43 -44 0 -56 -5 -81 -29z"/>
<path d="M1300 2524 c0 -152 1 -165 18 -162 15 3 17 19 20 131 l3 129 102
-128 c56 -70 108 -129 115 -132 9 -3 12 34 12 162 0 139 -2 166 -15 166 -12 0
-15 -23 -17 -127 l-3 -128 -100 127 c-58 74 -107 127 -117 128 -16 0 -18 -14
-18 -166z"/>
<path d="M1752 2673 c-49 -24 -75 -68 -80 -134 -8 -104 45 -169 144 -177 40
-3 63 1 98 18 l46 22 0 69 0 70 -67 -3 c-53 -2 -68 -6 -68 -18 0 -11 13 -16
48 -18 l47 -3 0 -40 c0 -36 -3 -41 -35 -55 -44 -18 -69 -18 -109 1 -91 44 -92
203 -1 241 46 19 74 18 117 -5 31 -15 38 -16 42 -4 9 21 9 21 -24 38 -38 20
-116 19 -158 -2z"/>
<path d="M2102 2533 c-40 -87 -72 -161 -72 -165 0 -5 7 -8 15 -8 8 0 25 20 37
45 l22 45 86 0 86 0 22 -45 c12 -25 29 -45 37 -45 8 0 15 4 15 9 0 5 -32 79
-71 165 -52 112 -77 156 -89 156 -12 0 -37 -44 -88 -157z"/>
<path d="M2432 2528 c3 -137 5 -163 18 -163 11 0 16 14 18 58 l3 57 54 0 c97
0 145 35 145 106 0 75 -48 104 -176 104 l-64 0 2 -162z m176 106 c15 -10 22
-25 22 -49 0 -49 -37 -75 -106 -75 l-54 0 0 70 0 70 58 0 c36 0 66 -6 80 -16z"/>
<path d="M2819 2667 c-18 -12 -44 -38 -57 -57 -20 -29 -23 -44 -20 -93 5 -61
23 -95 72 -131 39 -30 143 -30 182 0 54 40 69 70 69 139 0 71 -17 103 -75 143
-46 31 -124 31 -171 -1z m152 -30 c42 -28 59 -60 59 -113 0 -56 -34 -105 -86
-123 -37 -13 -44 -12 -79 5 -49 24 -75 60 -81 110 -7 51 21 103 67 126 46 24
79 23 120 -5z"/>
<path d="M3162 2528 c3 -137 5 -163 18 -163 11 0 16 15 18 63 l3 62 44 0 c45
0 53 -7 141 -128 1 -2 10 0 18 5 14 8 10 18 -28 68 l-44 59 32 15 c64 32 71
112 13 155 -23 17 -46 22 -123 24 l-95 4 3 -164z m198 102 c25 -25 25 -51 1
-81 -16 -19 -30 -24 -90 -27 l-71 -4 0 66 0 66 70 0 c57 0 74 -4 90 -20z"/>
<path d="M3520 2688 c-1 -5 -1 -303 -1 -315 1 -10 31 -13 116 -13 108 0 115 1
115 20 0 19 -7 20 -100 20 l-100 0 0 55 0 55 91 0 c81 0 90 2 87 18 -3 14 -15
17 -73 19 -39 1 -78 2 -87 2 -15 1 -18 10 -18 51 l0 49 97 3 c84 3 98 6 101
21 3 15 -7 17 -112 17 -64 0 -116 -1 -116 -2z"/>
<path d="M4042 2560 l3 -130 32 -31 c26 -26 42 -33 85 -37 44 -3 59 0 88 20
47 32 59 72 59 201 1 101 0 107 -19 107 -19 0 -20 -7 -20 -110 0 -130 -12
-165 -63 -178 -40 -11 -87 1 -109 29 -15 18 -18 42 -18 140 0 114 -1 119 -21
119 -20 0 -20 -4 -17 -130z"/>
<path d="M4412 2528 c3 -137 5 -163 18 -163 12 0 16 23 20 129 l5 129 104
-132 c56 -73 108 -130 115 -128 7 2 12 55 14 165 2 156 2 162 -17 162 -19 0
-21 -8 -23 -127 l-3 -126 -99 126 c-135 174 -137 173 -134 -35z"/>
<path d="M4921 2683 c0 -5 31 -78 68 -163 41 -95 73 -156 83 -158 11 -2 32 37
82 152 36 85 66 160 66 166 0 6 -8 10 -17 8 -11 -2 -35 -49 -71 -136 -30 -73
-58 -129 -62 -125 -4 4 -31 65 -60 136 -41 98 -57 127 -71 127 -11 0 -19 -3
-18 -7z"/>
<path d="M5304 2677 c-2 -7 -3 -80 -2 -162 l3 -150 118 -3 c112 -3 117 -2 117
18 0 19 -6 20 -100 20 l-100 0 0 55 0 55 91 0 c81 0 90 2 87 18 -3 18 -9 19
-120 21 l-58 1 0 50 0 49 97 3 c84 3 98 6 101 21 3 15 -7 17 -113 17 -85 0
-117 -3 -121 -13z"/>
<path d="M5632 2529 c3 -147 5 -164 21 -167 15 -3 17 5 17 62 l0 66 45 0 c42
0 46 -3 86 -55 42 -56 75 -82 87 -70 3 3 2 12 -3 19 -72 99 -78 110 -64 115 7
2 26 17 41 32 37 37 37 79 -1 121 -28 32 -31 32 -130 36 l-102 4 3 -163z m196
105 c28 -20 29 -65 1 -90 -15 -13 -40 -20 -90 -22 l-69 -4 0 66 0 66 68 0 c45
0 75 -5 90 -16z"/>
<path d="M6025 2678 c-32 -17 -45 -39 -45 -75 0 -46 35 -76 104 -92 63 -14 91
-39 82 -75 -9 -37 -61 -51 -117 -31 -57 21 -71 23 -76 9 -6 -17 77 -54 121
-54 74 0 126 53 110 114 -8 33 -34 51 -105 72 -68 20 -79 29 -79 65 0 48 62
63 127 32 30 -14 36 -14 44 -2 21 34 -116 65 -166 37z"/>
<path d="M6430 2670 c0 -17 7 -20 50 -20 l49 0 3 -142 c3 -127 5 -143 21 -146
16 -3 17 9 17 142 l0 146 55 0 c48 0 55 2 55 20 0 19 -7 20 -125 20 -118 0
-125 -1 -125 -20z"/>
<path d="M6730 2684 c0 -3 29 -49 65 -101 63 -93 65 -97 65 -159 0 -50 3 -64
15 -64 12 0 15 14 15 63 0 63 1 66 70 165 64 92 68 102 48 102 -17 0 -33 -16
-60 -58 -21 -31 -46 -68 -56 -80 l-18 -24 -53 81 c-36 54 -60 81 -72 81 -11 0
-19 -3 -19 -6z"/>
<path d="M7279 2667 c-105 -70 -108 -206 -6 -281 40 -30 144 -30 183 0 54 40
69 70 69 139 0 71 -17 103 -75 143 -46 31 -124 31 -171 -1z m142 -22 c65 -34
89 -128 49 -193 -25 -41 -79 -65 -125 -56 -118 22 -141 202 -32 249 42 19 71
18 108 0z"/>
<path d="M7622 2528 c3 -137 5 -163 18 -163 12 0 16 16 18 73 l3 72 84 0 c69
0 85 3 85 15 0 12 -16 15 -85 15 l-85 0 0 55 0 55 95 0 c88 0 95 1 95 20 0 19
-7 20 -115 20 l-115 0 2 -162z"/>
<path d="M1568 2190 c-59 -31 -83 -74 -83 -147 0 -69 17 -101 75 -140 54 -37
141 -30 192 15 13 11 15 19 7 28 -8 10 -18 7 -47 -13 -54 -36 -114 -28 -159
21 -29 31 -33 43 -33 90 0 66 31 109 89 127 33 10 45 8 86 -10 30 -13 52 -18
58 -12 13 13 3 26 -37 45 -45 21 -102 20 -148 -4z"/>
<path d="M2725 2196 c-70 -32 -116 -121 -96 -191 22 -81 82 -125 169 -125 54
0 100 24 136 73 31 42 29 132 -4 180 -44 66 -136 94 -205 63z m113 -31 c43
-18 82 -74 82 -119 0 -99 -97 -164 -181 -121 -96 50 -88 208 11 242 45 15 43
16 88 -2z"/>
<path d="M3412 2193 c-18 -9 -45 -32 -60 -51 -36 -47 -39 -145 -6 -189 70 -94
208 -100 275 -10 34 46 35 147 1 195 -47 65 -140 90 -210 55z m110 -23 c88
-25 119 -144 57 -214 -78 -89 -214 -35 -214 86 0 55 25 95 76 120 40 21 34 21
81 8z"/>
<path d="M3835 2196 c-37 -16 -83 -68 -91 -102 -11 -41 2 -124 23 -152 32 -45
80 -64 148 -60 36 3 71 11 88 22 25 17 27 24 27 82 l0 64 -65 0 c-51 0 -65 -3
-65 -15 0 -11 12 -15 50 -15 l50 0 0 -41 c0 -36 -3 -41 -35 -55 -69 -29 -141
-9 -170 46 -24 47 -20 123 10 159 44 51 114 61 171 24 18 -11 23 -11 33 1 31
37 -110 72 -174 42z"/>
<path d="M4365 2202 c-12 -1 -40 -33 -69 -77 -27 -41 -51 -75 -55 -75 -3 0
-28 34 -55 75 -37 58 -54 75 -72 75 -21 0 -17 -8 42 -94 63 -92 64 -96 64
-160 0 -59 2 -66 20 -66 18 0 20 7 20 66 0 64 1 67 66 160 36 52 65 96 63 97
-2 2 -13 1 -24 -1z"/>
<path d="M4704 2133 c-39 -85 -63 -138 -94 -208 -19 -44 -19 -45 0 -45 13 0
25 14 39 45 l20 45 86 0 86 0 19 -45 c14 -32 25 -45 39 -45 24 0 28 -10 -62
185 -40 88 -70 141 -80 143 -12 3 -26 -17 -53 -75z"/>
<path d="M6729 2195 c-35 -19 -51 -65 -38 -104 11 -32 42 -50 122 -71 51 -14
71 -37 60 -67 -18 -47 -71 -55 -140 -22 -46 22 -60 21 -49 -6 8 -22 67 -45
116 -45 71 0 109 31 110 89 0 48 -22 68 -100 91 -76 23 -95 39 -86 74 11 44
79 52 144 17 16 -8 21 -7 26 5 3 9 6 17 6 19 0 1 -15 10 -34 19 -42 20 -102
20 -137 1z"/>
<path d="M7270 2199 c-62 -26 -100 -85 -100 -156 0 -60 25 -111 70 -141 30
-20 45 -23 100 -20 41 2 75 11 93 22 25 17 27 24 27 82 l0 64 -65 0 c-51 0
-65 -3 -65 -15 0 -11 12 -15 45 -15 l45 0 0 -39 c0 -47 -16 -62 -73 -68 -83
-10 -139 44 -139 134 0 101 97 157 189 110 27 -14 33 -14 43 -2 28 34 -109 70
-170 44z"/>
<path d="M810 2185 c0 -12 13 -15 55 -15 l55 0 0 -145 c0 -117 3 -145 14 -145
21 0 25 20 25 142 0 62 0 121 0 131 1 14 10 17 51 17 38 0 50 4 50 15 0 13
-21 15 -125 15 -104 0 -125 -2 -125 -15z"/>
<path d="M1152 2043 l3 -158 118 -3 c112 -3 117 -2 117 18 0 19 -6 20 -100 20
l-100 0 0 55 0 55 90 0 c73 0 90 3 90 15 0 12 -17 15 -90 15 l-90 0 0 55 0 55
100 0 c82 0 100 3 100 15 0 13 -20 15 -120 15 l-121 0 3 -157z"/>
<path d="M1870 2040 c0 -133 2 -160 15 -160 11 0 15 17 17 73 l3 72 93 3 92 3
0 -76 c0 -60 3 -75 15 -75 8 0 15 6 16 13 0 6 1 78 2 160 2 134 0 147 -15 147
-15 0 -18 -10 -18 -70 l0 -70 -95 0 -95 0 0 70 c0 56 -3 70 -15 70 -13 0 -15
-24 -15 -160z"/>
<path d="M2252 2043 c3 -140 5 -158 20 -161 16 -3 18 10 20 128 l3 131 100
-130 c59 -76 107 -130 118 -130 15 -1 17 13 17 159 0 152 -1 160 -20 160 -18
0 -20 -8 -22 -122 l-3 -122 -95 122 c-71 91 -101 121 -118 122 l-23 0 3 -157z"/>
<path d="M3060 2040 l0 -160 110 0 c103 0 110 1 110 20 0 19 -7 20 -90 20
l-90 0 0 140 c0 133 -1 140 -20 140 -19 0 -20 -7 -20 -160z"/>
<path d="M5010 2040 c0 -134 2 -160 15 -160 12 0 15 24 17 131 l3 132 103
-132 c57 -72 110 -131 118 -131 12 0 14 28 14 160 0 152 -1 160 -20 160 -18 0
-20 -8 -22 -121 l-3 -121 -94 121 c-129 166 -131 165 -131 -39z"/>
<path d="M5410 2040 l0 -160 73 0 c88 0 150 27 185 80 20 29 23 45 20 91 -8
106 -64 149 -197 149 l-81 0 0 -160z m176 114 c43 -20 64 -59 64 -116 0 -78
-50 -118 -145 -118 l-55 0 0 125 0 125 51 0 c28 0 66 -7 85 -16z"/>
<path d="M5962 2043 l3 -158 86 0 c76 0 91 3 126 27 72 47 93 153 45 218 -41
55 -78 70 -174 70 l-89 0 3 -157z m185 107 c58 -35 78 -101 48 -164 -22 -46
-62 -66 -134 -66 l-61 0 0 125 0 125 58 0 c39 0 67 -6 89 -20z"/>
<path d="M6352 2043 l3 -158 118 -3 c112 -3 117 -2 117 18 0 19 -6 20 -100 20
l-100 0 0 55 0 55 90 0 c73 0 90 3 90 15 0 12 -17 15 -90 15 l-90 0 0 55 0 55
100 0 c82 0 100 3 100 15 0 13 -20 15 -120 15 l-121 0 3 -157z"/>
<path d="M7580 2039 c0 -147 1 -160 18 -157 15 3 18 19 22 128 l5 125 99 -127
c55 -71 105 -128 113 -128 10 0 13 34 13 160 0 136 -2 160 -15 160 -13 0 -15
-21 -15 -127 -1 -123 -1 -127 -18 -107 -9 12 -55 69 -100 128 -119 150 -122
149 -122 -55z"/>
</g>
</svg>
